<?xml version="1.0" encoding="UTF-8"?>
<svg id="Camada_2" data-name="Camada 2" xmlns="http://www.w3.org/2000/svg" viewBox="0 0 1000 839.14">
  <defs>
    <style>
      .cls-1 {
        fill: #034ea2;
      }
    </style>
  </defs>
  <g id="Camada_1-2" data-name="Camada 1">
    <path class="cls-1" d="M626.33,816.17h168.83c107.09,0,181.88-69.33,181.88-168.6s-74.79-168.59-181.88-168.59c-62.19,0-67.02-41.15-67.02-53.75,0-34.14,23.9-53.73,65.59-53.73h40.52c16.96,0,30.77-13.8,30.77-30.77v-84.08l-320.86.49v-52.3c0-62.19,41.13-67.02,53.74-67.02,18.31,0,48.25,11.03,53.08,50.8h115.23c-4.89-98.13-72.73-165.67-168.31-165.67s-168.6,74.79-168.6,181.88v52.29h-153.22c-16.96,0-30.77,13.79-30.77,30.76v144.57c0,41.86-32.14,57.07-53.74,57.07s-53.76-15.21-53.76-57.07v-175.32H53.74c-16.96,0-30.77,13.79-30.77,30.76v134.61c0,107.08,69.33,181.88,168.6,181.88s168.59-74.81,168.59-181.88v-142.17h69.13v313.36h84.09c16.95,0,30.77-13.81,30.77-30.77v-282.59h144.83l-22.19,20.02c-24.41,22.01-53.51,61.55-53.51,124.9,0,99.26,74.79,168.6,181.88,168.6,49.47,0,67.02,28.95,67.02,53.74,0,8.99-3.23,53.75-67.02,53.75h-138.06c-16.96,0-30.77,13.81-30.77,30.78v84.07ZM795.16,839.14h-191.8v-107.04c0-29.64,24.11-53.75,53.74-53.75h138.06c38.33,0,44.06-19.28,44.06-30.78,0-9.26-4.3-30.77-44.06-30.77-120.61,0-204.84-78.78-204.84-191.57,0-55.68,19.97-95.26,41.95-121.94h-65.15v259.62c0,29.63-24.1,53.74-53.73,53.74h-107.07v-313.36h-23.19v119.2c0,120.61-78.77,204.84-191.56,204.84S0,543.1,0,422.49v-134.61c0-29.62,24.11-53.73,53.74-53.73h107.04v198.29c0,33.71,29.52,34.1,30.79,34.1,3.15,0,30.77-.96,30.77-34.1v-144.57c0-29.62,24.11-53.73,53.74-53.73h130.24v-29.32C406.32,84.23,485.1,0,597.89,0s191.56,84.16,191.56,200.11v11.49h-160.78v-11.49c0-37.44-25.63-39.33-30.78-39.33-20.14,0-30.78,15.24-30.78,44.06v29.31l320.87-.5v107.09c0,29.63-24.11,53.74-53.74,53.74h-40.52c-42.63,0-42.63,22.34-42.63,30.76,0,20.42,14.83,30.78,44.06,30.78,120.61,0,204.84,78.77,204.84,191.56s-84.23,191.57-204.84,191.57"/>
  </g>
</svg>